<svg width="19" height="19" viewBox="0 0 19 19" fill="none" xmlns="http://www.w3.org/2000/svg">
<path d="M3.04144 15.4593C2.48916 15.4593 2.04144 15.0116 2.04144 14.4593V2.47922C2.04144 2.07648 1.71496 1.75 1.31223 1.75C0.90949 1.75 0.583008 2.07648 0.583008 2.47922V15.6533C0.583008 15.7183 0.588289 15.7834 0.605137 15.8461C0.683315 16.1373 0.850826 16.3977 1.08527 16.5899C1.34498 16.8028 1.67064 16.9187 2.00644 16.9177H17.355C17.7577 16.9177 18.0842 16.5912 18.0842 16.1885C18.0842 15.7858 17.7577 15.4593 17.355 15.4593H3.04144Z" fill="#A1A4A3"/>
<path d="M3.6748 10.0628C3.6748 9.66013 4.00127 9.33366 4.40399 9.33366C4.8067 9.33366 5.13317 9.66013 5.13317 10.0628V13.1546C5.13317 13.5573 4.8067 13.8838 4.40399 13.8838C4.00127 13.8838 3.6748 13.5573 3.6748 13.1546V10.0628ZM7.47821 5.40192C7.47821 4.99598 7.80729 4.6669 8.21323 4.6669C8.61916 4.6669 8.94824 4.99598 8.94824 5.40192V13.1487C8.94824 13.5547 8.61916 13.8838 8.21323 13.8838C7.80729 13.8838 7.47821 13.5547 7.47821 13.1487V5.40192ZM11.2933 7.72947C11.2933 7.32675 11.6198 7.00028 12.0225 7.00028C12.4252 7.00028 12.7516 7.32675 12.7516 7.72947V13.1546C12.7516 13.5573 12.4252 13.8838 12.0225 13.8838C11.6198 13.8838 11.2933 13.5573 11.2933 13.1546V7.72947ZM15.1084 3.64605C15.1084 3.24334 15.4348 2.91687 15.8375 2.91687C16.2403 2.91687 16.5667 3.24334 16.5667 3.64605V13.1546C16.5667 13.5573 16.2403 13.8838 15.8375 13.8838C15.4348 13.8838 15.1084 13.5573 15.1084 13.1546V3.64605Z" fill="#A1A4A3"/>
</svg>
